<mxfile host="app.diagrams.net" modified="2023-06-09T16:06:09.468Z" agent="Mozilla/5.0 (X11; Linux x86_64; rv:109.0) Gecko/20100101 Firefox/113.0" etag="n6_Sv6oCwuveWvHt4pa3" version="21.3.7" type="github">
  <diagram name="Page-1" id="p050v5aGQvljBA40dcEX">
    <mxGraphModel dx="1434" dy="703" grid="1" gridSize="10" guides="1" tooltips="1" connect="1" arrows="1" fold="1" page="1" pageScale="1" pageWidth="850" pageHeight="1100" math="0" shadow="0">
      <root>
        <mxCell id="0" />
        <mxCell id="1" parent="0" />
        <mxCell id="sgyiILVtQjdwvqKFbTJx-3" value="" style="edgeStyle=orthogonalEdgeStyle;rounded=0;orthogonalLoop=1;jettySize=auto;html=1;" edge="1" parent="1" source="sgyiILVtQjdwvqKFbTJx-1" target="sgyiILVtQjdwvqKFbTJx-2">
          <mxGeometry relative="1" as="geometry" />
        </mxCell>
        <mxCell id="sgyiILVtQjdwvqKFbTJx-1" value="Начало" style="ellipse;whiteSpace=wrap;html=1;" vertex="1" parent="1">
          <mxGeometry x="160" y="80" width="120" height="80" as="geometry" />
        </mxCell>
        <mxCell id="sgyiILVtQjdwvqKFbTJx-5" value="" style="edgeStyle=orthogonalEdgeStyle;rounded=0;orthogonalLoop=1;jettySize=auto;html=1;" edge="1" parent="1" source="sgyiILVtQjdwvqKFbTJx-2" target="sgyiILVtQjdwvqKFbTJx-4">
          <mxGeometry relative="1" as="geometry" />
        </mxCell>
        <mxCell id="sgyiILVtQjdwvqKFbTJx-2" value="Ввод входных данных и выбор степени для полинома аппроксимирующей функции(n = 1 - линейная, n = 2 - квадратичная)" style="shape=parallelogram;perimeter=parallelogramPerimeter;whiteSpace=wrap;html=1;fixedSize=1;" vertex="1" parent="1">
          <mxGeometry x="110" y="190" width="220" height="120" as="geometry" />
        </mxCell>
        <mxCell id="sgyiILVtQjdwvqKFbTJx-7" value="" style="edgeStyle=orthogonalEdgeStyle;rounded=0;orthogonalLoop=1;jettySize=auto;html=1;" edge="1" parent="1" source="sgyiILVtQjdwvqKFbTJx-4" target="sgyiILVtQjdwvqKFbTJx-6">
          <mxGeometry relative="1" as="geometry" />
        </mxCell>
        <mxCell id="sgyiILVtQjdwvqKFbTJx-13" value="" style="edgeStyle=orthogonalEdgeStyle;rounded=0;orthogonalLoop=1;jettySize=auto;html=1;" edge="1" parent="1" source="sgyiILVtQjdwvqKFbTJx-4" target="sgyiILVtQjdwvqKFbTJx-12">
          <mxGeometry relative="1" as="geometry">
            <Array as="points">
              <mxPoint x="340" y="355" />
              <mxPoint x="340" y="320" />
              <mxPoint x="540" y="320" />
            </Array>
          </mxGeometry>
        </mxCell>
        <mxCell id="sgyiILVtQjdwvqKFbTJx-4" value="i = 0 to 4" style="shape=hexagon;perimeter=hexagonPerimeter2;whiteSpace=wrap;html=1;fixedSize=1;" vertex="1" parent="1">
          <mxGeometry x="160" y="340" width="120" height="30" as="geometry" />
        </mxCell>
        <mxCell id="sgyiILVtQjdwvqKFbTJx-10" value="" style="edgeStyle=orthogonalEdgeStyle;rounded=0;orthogonalLoop=1;jettySize=auto;html=1;" edge="1" parent="1" source="sgyiILVtQjdwvqKFbTJx-6" target="sgyiILVtQjdwvqKFbTJx-9">
          <mxGeometry relative="1" as="geometry" />
        </mxCell>
        <mxCell id="sgyiILVtQjdwvqKFbTJx-6" value="&lt;img src=&quot;data:image/png;base64,iVBORw0KGgoAAAANSUhEUgAAAJ4AAABYCAYAAAAENE7SAAAACXBIWXMAAA7EAAAOxAGVKw4bAAAYnUlEQVR4nO2d+W8T6RnHP7bH9zG+czu3cy7bhCUcFU1BqLut2lKtqv6TlVqprVbtLlQLCyGEKwECCbmcOHbixLEdO749dn9gZ0p2YTeHcwD+SBFSHMbv2M+87/tc31dVqVQq1KhxzAgnPYAa+0OSJHK5HMFgkEgkQrlcprm5mcbGRsxm80kPb8/UDO89oVKpkM/nicfjrKysMD4+zvLyMkajkdHRUex2e83walSfSqXC+vo64+PjfP3119y9exej0cjQ0NBJD+1A1AzvPaBQKJBKpVhbW0Ov13P+/HnMZjPhcBi9Xo9KpUKlUp30MPdFzfC+p1AokEgkWF1dJRKJYDQaqa+vRxRFNjc3iUQiJJNJmpubaW5upr6+HrVafWxfuFqtxmq1YjKZ8Pl8AJRKJQRBeO+MDmqGh+zUp1IpZmdn+frrrxkbG8PpdHLp0iUGBgZ48uQJ9+7dY2ZmhmvXrvG73/0Ou92OwWBAo9Ec+Rh1Oh06nQ6HwwFALBZjenoajUaDWq0+8vc/Cj56w5OJRqPs7OzQ0dFBOp1mfX2dx48fo9Vq8fl8iKKI0+kkk8kQCAQYHBykvr7+WAzvQ6RmeN/jcDhoa2vD7XazsbHB+vo6qVQKvV5Pe3s7hUKBpaUlYrEYkiRRC38ejo/e8OT9kdfrxWazEYvFlCVMFEV8Ph9NTU3EYjEA9Ho9JpMJg8Hw1r1VLpcjmUyytbVFJpOhVCr97Bh0Oh0WiwWXy4XVakWr1Vb3Jk8hH73hvUmhUGBra4tYLIbJZKKzs5O+vj4MBgOJRILt7W2sVitOpxNRFN+6zEYiEcbGxvj73//OixcvSCQSP/u+Xq+Xs2fP8qc//YkLFy7gcrmO4vZOFTXDe4NCoUAsFqNYLGK1WmlsbMRisbCzs0M8HqdQKGC1WrHZbGi12rfOeE6nk7Nnz2K324nH4+Tz+Z99X6PRiMfjoaOjA5PJdBS3duqoGd4byDNeqVTCarXidrvR6XRkMhkSiQTlchmbzYbVan2nU2E2m+no6MDn81Eul/e0F1SpVKjVagRBeG+91P1SM7zvqVQqu2Y8g8GA3W5Ho9GQTqdJpVJUKhXMZjN6vZ5isYharf5RLE/+nSAczUdbqVR2/cjG/b45OzXDe4N8Pk80GqVYLGI0GrHb7ajVanK5nOIoxONx5ufnyeVyNDQ04HK5jj1HKj8kmUwGtVpNPp+nXC4f6xgOS83wviefz5NKpYjFYkqWQBRF1Go1er0eQRBIJpPMzc0hCAIulwutVntscbxyuUwoFGJpaYmXL19y9+5dXr58iUqlwmw2E4/H6evro6WlBafTeeo945rhfU+pVEKlUuFyufB6vfh8Pmw2G2q1GqfTqYRVNBoNer0el8ulZC+Og0qlosy2T58+ZXt7W3FEwuEwc3NzmEwm7HY7oiieesNT1QpBX1MulymVSuTzeVQqFYIgoNPpUKlUSJJEsVj80WvHmSetVCqUSiWKxSLFYhFJkpTlVd5TarVaZRY+7fnbmuHVOBISiQSzs7O8evUKvV6P3++np6cHo9EI1JbaGkdEPp9nfX2dhYUFrFYrDQ0NSJKkvF4zvBpHglarxeFw0NfXhyiKtLS0oNPplNdrS22NI6FYLJJOpykUCgiCgMlkQqfTKQHy2oxXo2qUy2WKxSLLy8vMz88zNzdHZ2cnPT092O32XQ5PzfBqVI1KpUKxWCQQCHDjxg3+9a9/ce3aNQRBoKOjo2Z4NY4GtVqNyWSiqamJ3t5elpeXlUKLH+aga4ZXo2rITUelUglJkpS0o9ls/lFc8eMohahxrGQyGXZ2dtBoNIii+NZcdm3Gq1E15ACJXM0DYLVaa4ZX42gpl8vk83kSiQTpdBqTyYTD4Xir4dWW2hpVo1wuk0ql2N7eplAoIIoioigqabI3qc14h0QuxpR/DhOPlyuR39d+WUmSSCaTpFIppYpbpVKRz+eRJAmDwVALIFcLSZKUWr5sNrsrH7lf1Go1FosFq9X61lnitFOpVMhms+TzecWznZ2dJR6PY7PZ6OvrqxUJVItcLsfy8jJ37txhamqKaDQKoMxa7ypPenOWlNHr9Vy+fJlLly4xODh4LOOvJrIXa7fbKRQK3L9/H0EQEEURt9u9q2i2ZniHRF5KQqEQ9+7dY3Z2llKpRFNTEy0tLXi93rfW7RWLRbLZLNFolLW1NaVv12Qy0d3dfRK3cmg0Gg0Oh4Pe3l4ymQwLCwvU19fj9XrxeDw1w6smZrOZ5uZmzp49y9zcHLFYjEQiwcWLF/nzn//Mr3/9a6WE/k3jKxaLRKNRJiYm+Nvf/sadO3eIRCIneCeHR6PRYLPZGB0dZXR09Cf/tmZ4VcBmszE8PMzS0hKbm5vcv3+fyclJGhsbcbvdXLhw4UfOgjw7nD9/nmg0SjKZ5O7du++lU3EQaoZXBXQ6HXV1dfziF78gFAqxurrKxsYGU1NTNDc309LSQl1d3a5mbbmJyOv10t3djd/vZ35+flfN2ofMjwxPDg8UCgV2dnbIZDJKN7xGo0Gn06HVaimXy2g0GgwGA2az+cj6SN8H1Go1Op0Ov99PJBJhZWWFb7/9lsXFRSYmJujo6ECn0+0KJ8D/c5t1dXV0dXXh9/sRRfHIP0u5v0TOMBSLRcUxkOvm4HUVsfw3KpUKk8mExWJBr9cfemZ+6x2m02mWl5f59ttvefDgAfPz80iShNvtVjbN2WwWURTp7+/nl7/8JU6n81AD+RDwer0MDAwQCoVYXl5maWmJR48eKU7Gu3SK3W43AwMD5HI53G63ooN3VBSLRdbX17l79y43btxgdXUVl8vFH/7wBy5cuEB7ezsACwsLjI2N8c0336DT6fjss8+4evUqPT096PX6Q43hR4YXDod59uwZ//3vf4lGo1itVv74xz9it9uJxWIsLS1x8+ZNNBoNfX199Pf3H2oAbxIMBpmenmZiYoJYLLYn3ZG3YTabaWxsZGRkBL/fj9frrdoYfwpBEGhoaOD8+fMsLS2xs7PD+vo69+7do7m5WYllAbscDYvFQnd3Nw6HA71ef2SGJysOBINBpqameP78OZlMhkwmQyQSoampaZcK6u3bt7l16xZPnz6lvb2dUqlUtQ42xfAkSWJnZ4fp6Wm+++477t+/j9/v59y5c4yOjuLxeHj27Bm5XI5bt25hsVioVCrYbLaqNTWnUikCgQDj4+Osra2RyWQOdB273U53d7ciG3uc2Gw2/H4/IyMjhMNhYrEYMzMzPHz4kPr6euVYgDf7XvV6PR6PB4/Hc+TjkySJVCpFKpXCarUyODiI2Wzm0aNHBINBFhcXsVqtSodYqVRicHCQnp4euru7FXWFwyLA/yURFhcXGRsb4/Hjx4pbfPnyZVpbW4HXX2hdXR1utxur1YrH41E66quBw+FgYGCAcrms5PsOgtFopK6ujs7OTqxWa1XGtle0Wi2iKDI0NEQoFGJtbY2JiQmmpqaor6+nvb2dnp6eE9MuLpfLuFwuhoaGGBkZQZIknjx5QiwWU2JvpVKJ6elpTCYTv//977ly5YqiC2g0Gqsy0QjyYNLpNNPT08zOzpLJZLh8+TK9vb27nkJ5U1oqlbBYLLjdbpxOZ9U2w06nk8HBQVpbWymVSgfWA5GdIKvVemyd/j98/9bWVoaGhlhdXWVlZYW1tTUePnyoSEzo9foT8WC1Wi0ejweHw4FKpSKXyxEOh3G5XMzNzfH48WNCoRBOp5Ph4WE+/fRTvF5v1XPIAkA2m2VjY4O5uTkSiQQ2m43e3l7q6up25QwLhQLpdJp8Po/ZbMblcr1ToPAg6PX6I93jHBdyzrWrq4uRkREWFhaYnJxUNuutra0YDAYaGxuPdVyyF/3mdyqLejudTlKpFMlkElEU8fv9ihbLUeSNBXjtxa6urhIIBABobm6mtbUVk8mESqVSNqXpdJrt7W3y+TwWi+WdtVYHpVQqUSgUFPWjg1Z6yE+nXq8/VmEdGXkJbWhoYHh4mEAgwMbGBoFAgEePHtHb20tTU9OxG97bkGVw5fyqXq+nsbGRc+fO4fP5jkwJS4DXpcrhcJhwOIwgCHi9Xrxer+Iyy8cZJRIJRSPYZrNhsViqOphYLMby8jIzMzNKfOkgGAwG3G43fr+f5ubmE5tBDQYD9fX1XLx4kWAwSDqdZmNjg83NzQM7TkeBTqfDbrdjt9ux2Wy0tLTQ3Nx8pOqkArwOFCaTSZLJJG63G5vNhs1mU/ZukiSxtrZGIBBgc3MTm82mCEVXk3g8zvPnz/nPf/7D+vr6gb8cURTp7OxUgqInZXhyYNnhcOBwOKirq0MURbq6uk5N3DOdThONRlldXVUk2rLZLLlc7lAlXj+HAK+XODmeI+8BTCYTGo2GcrlMLpdjaWmJmZkZ1tfXcTgcimdb1cF833EuT/sHfeJkbbvjOgDlXUiSpFSgZDIZnE4nLS0tyob9JKlUKkiSRCgUYmFhgXA4DLwOLm9tbbG1tYXD4TiyukDFqy0UCsrSJgiCoscrx/devHjB8+fPCYfDdHR04HK5qr7UdnR00NHRwV/+8peqXvekkIVrbt++zezsLG63m9HRUQYHB09c2V2eUCYnJ5mamqJUKuH3+8lms2xtbRGNRmlpaTmy9xfg/wlrvV6vPKXZbBZBENjY2ODJkycsLy8rkXlZgLpYLLK4uIhKpcLhcGC32w81mNOu6bZX5Hz34uKiEoyvr6/n0qVLfPbZZ1gslmO/V3lMmUyGYrHI9vY209PTzMzMYDQauXr1KgsLCzx79oxIJML6+jqxWAyVSkUqlcJoNGK1Wqu2ygnwehPscrmUI5NmZ2eZmJjAYDAQj8cJBAKKPGuxWCSZTPLy5UtisRi5XE5RAjqs4X0oSJJEJBJhcnKSyclJKpUK/f39DA8P09DQcCIFFXLG4tmzZywuLhIKhYhEIuj1evr6+jh37hzlcpm5uTnW1taYnp6mXC7jcDgol8u7tO2qgQCvc4UtLS20t7fz8uVLnjx5giRJSrTaarXS1tZGOp0mFosp1RdOp1PxhmqiU6+RJIlMJsP09DQPHz4kGAzS19en5I3fFjSW91vyVkej0SiZjWrNjPJRCrdv3+bGjRssLy/j8/n44osvGBwcpKuri1AohMPhYHZ2locPH7KyskJdXR0+n09x1qqFAP9PVV29epVSqcTU1BR3795laGhI+dCMRiN6vZ5oNMqjR4+wWCz09/dz5coVent7T42XdtJkMhlWVlYYGxsjGAzidDr51a9+RXd3N6IovvX/SJKknLwtVwE1NjYqUrjVQF6pUqmUkln54osvlGoTrVZLd3c3w8PDbG5u8vz5cywWCw0NDYyOjtLa2lrVmJ6qUqlUZOciHA6zuLjI2toahUKBxsbGXaLT4XCYpaUlQqEQdrtdmSXtdvuufO2LFy9YXFwkHo9z5swZfD7fe5+N2AtyvvvOnTt89dVXGAwGhoeHuX79ulIc8DaSySQzMzPcunULrVbLmTNnOHfuHGazuWopqlwux/b2Nq9evWJjYwOVSkVXVxfNzc2IoohKpSKTyRAMBgkEAqytrSleeHt7+1vPWEskEiwtLbGwsIDBYKC9vZ2urq49lUwpzoXBYFC8ynfR09NDT0/PO1+XMxyrq6tMTU2xsbFBXV0ddXV1e/183kvkbcbW1hYvXrxgbGyMVCpFX18f58+fx+fz/WRednt7m/n5ecbHx/F4PDQ1NVX93AqDwYDBYPjJ78JisdDX16eUbv0c8hGqjx8/RhRFLBYLbW1teze8aiHro1mtVuVYpba2tmOvEDkpZmZmGBsbY2pqipGRES5dusSnn376s9U70WiU5eVlZWmW1dtPO3IlTl9fn3Ikw14dp6oanizF39vbi8/no1KpYLfbD12tetpJp9PKvm5ubg6z2YzX60WSJAKBwFuLJ2X1zGQyydjYGLdu3WJpaYn+/n6lveC0Y7PZOHPmDH6/H61Wu68jT6tmePl8nlgsxsLCAltbW8rSXc2yqdNIPp8nEolw//597t+/z8zMDGq1mqdPnxKJRN65r5PPrdjZ2WFubo7FxUV2dnZQqVSn+qwKuTROLu9fWVnB5/PR0dGBx+PZ85irZhG5XI6VlRX+8Y9/MDk5icPh4Msvv8Rms33QR2GmUimWl5e5d+8eL168IBgMUqlUWFxc3Nd11Go1RqMRg8Fwqk9xlAtGXr58yVdffcW///1vfvOb33D9+nWampqO3/AsFgtNTU10d3eTSqUUiar3Yck4DPF4nGAwSDwex+FwHHh2V6vVmM1mGhoaqp6KrCY/lJsNBoNK6+Z+HpaqGZ5cA1cul9HpdEoFy4e8zMLrqumhoSFEUSSdTu/pKPi3oVar0Wq1tLe34/P5qjzK6qFSqZRAskajwWq1YrfbldrNvVI1q5BVk7a3t6lUKlgslvfiFMHD4nK5cLlcnDlz5qSHcqzI+Xw5lbrf7VTVNhKFQoFkMsnW1hYqlQpRFD94x+JjJp1Ok0wmqVQqB5JVq5rhZTIZYrEY6XRaOd1arumr8eEgZ7lSqRTpdFoJo5yY4WWzWaUlUS4s0Gq1p9Y7q3Ew5I7E7e1tcrmc0q9xYkttLpcjlUpRqVQwGAzodDqy2SyFQuFIS6hrHC+lUolEIkE8HqdYLCp1mCc248lCg7IYzOrqKg8ePGB2dlYRHazx/iNJEolEgp2dHQDllPL9bqmqtvM3GAxYLBYkSWJpaYlyuYzdbqehoeFEmqqPElkT5enTp2i1WlpaWvjkk09+Unp2L5TLZZLJJCsrK0pjlSRJWCwWmpub6e7uVprBTwq5hCuXyyEIghKr3e99V83wbDYbra2t+P1+otEoZrMZp9OJ2+0+st7MkyKTybC6usq9e/cwm82Uy2UGBgYOtZ+VeyDm5+eZmppiZmaGXC5HJpNBEAQ8Hg/FYpH+/n7q6+uBk2kVkJfaXC6nnEl7kJBZ1QzP6XQyMjLC2bNnKZfLSkD5Q/Rq5SzDwMAAoijS0dFxaCeqUCgQi8X47rvvCIVCeL1evvzyS6LRKA8ePOCbb75BEARFBPKk8rjyjJfP55Xs1EFCZlXNXKjV6o8ibme1Wuns7MTr9aLVapWCzcMYQyqVYm5ujvX1dQRBoKWlBZfLhclkYnNzE6fTyfr6OoFAgJ6enhOJkcqHH29tbSFJEqIoUldXd6Cl/8O3kipSqVQUxc9wOIwoivh8vqo0OcnVv4lEAq/Xi9vtRq/XK8WbTqdzV/fXcSiH/pCdnR3W1tbY3NxUVBI8Hs+BxIdqhrdPFhYW+Oc//8nNmzfp7u7m+vXrjI6OIggC+Xx+V3/yTyGf4iNXBufzeaLRKOl0WlnK5bZTuUFdNszt7e1jC1HJZ3Hk83lWV1eZnZ1le3ubjo4OOjs7D9xrUzO8fdLU1ITf72d5eVmR+xIEgUAgwM2bNxkfH2d+fn5P1/J4PHz++edcu3ZNCUPJKqhvzmay1jS83tzncrnq39g7yGazRCIRxsfHefbsGZubm3R2dnL+/PlDqcHWDG+fyFXWJpNJ6TMwGo1Kv0E+n1e8zp+7js1mo62tDbPZzNbWFoVCgXK5rFSAyO2NcuWKrOwgSdKxtZMKgoDVaqWrqwur1UqhUKClpeXQW4ya4e2TdDpNNpsFUIpcjUYjWq2WixcvMjQ0tOfSKLm2zWg0srW1pRjT2/pp5d8dtzd7VDK5NcPbJ6lUSilRt9lsGAwGpVxdVtna62wkG9EP/5W79X7IhxSiqhnePkmlUmQyGdRqNaIootfryeVybG5uKvugYDC4p2s5HA4uXrzIhQsXEAQBo9GIWq1WBCpl45MrQmRnZL/VvqeRmuHtEVn0Ri4HUqvVyownvy7LUOzlmASVSkWxWFT2a/KMqdVqFdk4uSFIPuhELkGy2Ww1w/tYkLurtre3yWazSk+prLLV0NDAb3/7W65cubJntXqNRoPJZMJsNhOJRHC5XBiNRgqFghIykcV2kskkJpMJj8eD0+l875fbmuHtkVKpRDweJx6PI0mSovIp7/EEQcBisWAymfblccpK6haLhc7OTp48eaJ0rsXjcbLZLKFQiEwmQ1tbG62trdjt9prhfSwUCgXi8bjSU2K327FarYqwjhz2OCgmk4nW1lbOnj3LixcvCAQC/PWvf1V6WRobGzlz5gxtbW0fRB9LzfD2SLFYVA4hUavVSvFjtdJWer0et9vNyMgIgiAwOTnJq1ev0Ol01NfX7zpz4kOgZnh7RNYGLhQKSk9JtZc7tVqNz+ejoaGBzz//XBHukUMoH1IrQc3w9kihUGBzc5NisYgoikfSMyxnLN73/dte+DAenyMml8sRi8UIhUKo1WrcbveJScp+KNQM7x3IcTtZlCcQCBAMBhVZ3ubm5o/mNO2joPbIvgM5fPLw4UMmJiZYW1vD7XZz8eJFPvnkEyWMUuNg/A8DpmRKZTbqUgAAAABJRU5ErkJggg==&quot; width=&quot;158&quot; height=&quot;88&quot;&gt;" style="whiteSpace=wrap;html=1;aspect=fixed;" vertex="1" parent="1">
          <mxGeometry x="121.67" y="390" width="196.65" height="103.27" as="geometry" />
        </mxCell>
        <mxCell id="sgyiILVtQjdwvqKFbTJx-11" value="да" style="edgeStyle=orthogonalEdgeStyle;rounded=0;orthogonalLoop=1;jettySize=auto;html=1;entryX=0;entryY=0.5;entryDx=0;entryDy=0;" edge="1" parent="1" source="sgyiILVtQjdwvqKFbTJx-9" target="sgyiILVtQjdwvqKFbTJx-4">
          <mxGeometry x="-0.9259" y="-10" relative="1" as="geometry">
            <Array as="points">
              <mxPoint x="80" y="560" />
              <mxPoint x="80" y="355" />
            </Array>
            <mxPoint as="offset" />
          </mxGeometry>
        </mxCell>
        <mxCell id="sgyiILVtQjdwvqKFbTJx-14" value="нет" style="edgeStyle=orthogonalEdgeStyle;rounded=0;orthogonalLoop=1;jettySize=auto;html=1;entryX=0.5;entryY=0;entryDx=0;entryDy=0;" edge="1" parent="1" source="sgyiILVtQjdwvqKFbTJx-9" target="sgyiILVtQjdwvqKFbTJx-12">
          <mxGeometry x="-0.9143" y="10" relative="1" as="geometry">
            <Array as="points">
              <mxPoint x="340" y="560" />
              <mxPoint x="340" y="320" />
              <mxPoint x="540" y="320" />
            </Array>
            <mxPoint as="offset" />
          </mxGeometry>
        </mxCell>
        <mxCell id="sgyiILVtQjdwvqKFbTJx-9" value="n==1 and i == 2" style="rhombus;whiteSpace=wrap;html=1;" vertex="1" parent="1">
          <mxGeometry x="164.99" y="520" width="110.01" height="80" as="geometry" />
        </mxCell>
        <mxCell id="sgyiILVtQjdwvqKFbTJx-16" value="" style="edgeStyle=orthogonalEdgeStyle;rounded=0;orthogonalLoop=1;jettySize=auto;html=1;" edge="1" parent="1" source="sgyiILVtQjdwvqKFbTJx-12" target="sgyiILVtQjdwvqKFbTJx-15">
          <mxGeometry relative="1" as="geometry" />
        </mxCell>
        <mxCell id="sgyiILVtQjdwvqKFbTJx-19" value="" style="edgeStyle=orthogonalEdgeStyle;rounded=0;orthogonalLoop=1;jettySize=auto;html=1;" edge="1" parent="1" source="sgyiILVtQjdwvqKFbTJx-12" target="sgyiILVtQjdwvqKFbTJx-15">
          <mxGeometry relative="1" as="geometry" />
        </mxCell>
        <mxCell id="sgyiILVtQjdwvqKFbTJx-20" value="" style="edgeStyle=orthogonalEdgeStyle;rounded=0;orthogonalLoop=1;jettySize=auto;html=1;" edge="1" parent="1" source="sgyiILVtQjdwvqKFbTJx-12" target="sgyiILVtQjdwvqKFbTJx-15">
          <mxGeometry relative="1" as="geometry" />
        </mxCell>
        <mxCell id="sgyiILVtQjdwvqKFbTJx-21" value="" style="edgeStyle=orthogonalEdgeStyle;rounded=0;orthogonalLoop=1;jettySize=auto;html=1;" edge="1" parent="1" source="sgyiILVtQjdwvqKFbTJx-12" target="sgyiILVtQjdwvqKFbTJx-15">
          <mxGeometry relative="1" as="geometry" />
        </mxCell>
        <mxCell id="sgyiILVtQjdwvqKFbTJx-22" value="" style="edgeStyle=orthogonalEdgeStyle;rounded=0;orthogonalLoop=1;jettySize=auto;html=1;" edge="1" parent="1" source="sgyiILVtQjdwvqKFbTJx-12" target="sgyiILVtQjdwvqKFbTJx-15">
          <mxGeometry relative="1" as="geometry" />
        </mxCell>
        <mxCell id="sgyiILVtQjdwvqKFbTJx-23" value="" style="edgeStyle=orthogonalEdgeStyle;rounded=0;orthogonalLoop=1;jettySize=auto;html=1;" edge="1" parent="1" source="sgyiILVtQjdwvqKFbTJx-12" target="sgyiILVtQjdwvqKFbTJx-15">
          <mxGeometry relative="1" as="geometry" />
        </mxCell>
        <mxCell id="sgyiILVtQjdwvqKFbTJx-12" value="i = 0 to n" style="shape=hexagon;perimeter=hexagonPerimeter2;whiteSpace=wrap;html=1;fixedSize=1;" vertex="1" parent="1">
          <mxGeometry x="480" y="340" width="120" height="30" as="geometry" />
        </mxCell>
        <mxCell id="sgyiILVtQjdwvqKFbTJx-17" style="edgeStyle=orthogonalEdgeStyle;rounded=0;orthogonalLoop=1;jettySize=auto;html=1;entryX=0;entryY=0.5;entryDx=0;entryDy=0;" edge="1" parent="1" source="sgyiILVtQjdwvqKFbTJx-15" target="sgyiILVtQjdwvqKFbTJx-12">
          <mxGeometry relative="1" as="geometry">
            <Array as="points">
              <mxPoint x="540" y="520" />
              <mxPoint x="400" y="520" />
              <mxPoint x="400" y="355" />
            </Array>
          </mxGeometry>
        </mxCell>
        <mxCell id="sgyiILVtQjdwvqKFbTJx-15" value="&lt;img src=&quot;data:image/png;base64,iVBORw0KGgoAAAANSUhEUgAAAOoAAABeCAYAAAAtz4gtAAAACXBIWXMAAA7EAAAOxAGVKw4bAAAgAElEQVR4nO2d2XNb53mHH+z7RmIhQBIASXCXSEmkLEqmrCWOJFdOYjf2JDNNOmk6badXucj0PtO/oeMuV51xJ536Ik7riW1JiWSJ1r5TFCnu+woSAAFi33qhOSeiNpPiKhHPDGckUTj4cHDeb3mX3yvJ5/N5CrwW5PN5crkc+XweqVSKRCJBIpFs9bAKbALSrR5AgZWTTqeJRCJMT0+TSCQozLE7h4KhbnNyuZxooIODg/zpT3/ik08+YXh4mEwms9XDK7BJFAx1m5NOpwkGg/T19XHlyhX+93//l08//ZSJiQlyudxWD6/AJiHf6gEUeDmRSISBgQHOnDnDjRs36OrqYn5+nmw2i1RamGd3CjveUPP5PIlEgng8TjKZRKFQoNPpkEqlxGIxEokEUqkUlUqFwWBAJpNt6vjm5uaYmpqira0Nq9WKRqPhD3/4A0DBkbSD2NGGms/nyWQyTExM0N/fz9TUFAaDgaamJvR6Pb29vYyNjZHP53E6nRw+fBi9Xr+pBqLRaHA6nVRUVKDRaBgcHAQKRrrT2NGGmsvlSKVS9Pb2cu7cOe7cuYPBYOCnP/0p5eXldHR0cO3aNcLhMLW1tTQ1NaHT6TbVSCoqKqioqABgYmJi01f0AtuDHX3IyWQyRCIREokENTU1HDt2jLm5Oa5cucL4+DjvvvsuP/nJT3C73Tx48IBwOFzwtBbYEnb0iiqTydDpdDQ2NqLX6wmHw4TDYSQSCXa7ndraWtLpNAaDgUwmg1Qqfa4DJ5/Pk81micfjJBKJFb+/RCJBr9ejUCgKK2WBl7KjDVUul2MwGKivryccDhMKhQAoLy+nurqaoqIi8vk8MpkMs9mMSqV6oaEmEgn6+/uZmJhY1fs3NTVhtVoLhlrgpexoQ32SQCDA9PQ0paWlNDQ04PV6yefzTE1Nkc1mcbvdqFSq555Ps9kswWCQP/zhD3z11Vcrfk+9Xs+vf/1rWltbUavV6/lxCrxh7HhDFdLwFhYW8Pv9NDQ04HA4kMlkpNNpRkdHSafTVFVVoVAonmuoUqkUi8XCe++9x+7du1f83nK5nPr6enQ63bp9ngJvJjveUOGxUykQCLCwsMDJkyexWCxiAvz4+DiZTAaPx0MulyOTySCTyZYZrFQqRavV0tTURGNj46reW6FQrDhxIZ/PixOLkJxfYGew4w01n88Ti8VYWFggHA7j8XgwmUxijHV6ehqNRoPD4SAcDqNWq9Hr9cvOlEIVi1Kp3JDxCT+ZTIZMJrPsz3K5XJw0CrHVN5cdHZ6BxyvT5OQkgUAApVJJeXk5BoOBbDZLIpEgmUySTCYJBoN88803DA4OkkqlNm18mUyGWCxGIBBgZmaGQCAAwMzMDJOTkwSDQdLpdGF1fcMprKj5PAsLC0ilUsrKyrBarajVaiQSCQqFgvLycmZnZ3n48CFerxeFQoFcvnm3LRKJMDExweDgILdu3WJmZoaioiLu3r1LLpejoqKCffv2YTabN2RFL7A92PGGKhikz+fD4XBgNpuRy+Xk83k0Gg0HDx6ku7sbAJ/Ph91uR6FQbNr40uk04XCYmZkZUqkULpcLq9UKPF5VdTodqVTqtV9Rhc8gk8me8QEUAMlOV3jI5/Ok02nx7KfRaJBKpeKDn0gkxGwklUolPkibRTabJZvNkslkyGazyxQepFIpMpkMpVIpKj68rkxPT5PNZjEYDOh0uk3dtbwO7HhDLbC1CI6yf/3XfyUcDtPe3s6ePXswGAxbPbRtRWHaKrClCB7smZkZlpaWCo6xF1Aw1AJbhhCrTiaTNDQ0IJVKqampKWRpPYfC1rfAlpFOp8XQUzgcRq/XU1ZWtqokkJ1CYUUtsGWEw2F6enr4+uuvKSoqYt++fVRVVW31sLYlBUMtsGWkUimGh4f5r//6L3w+HzqdjqNHj271sLYlhf1FgS3DbrdTWVmJzWbD6/XicDi2ekjbloKhFthS0uk08/PzFBcXFwz1JRQMtcCWEY/HCYVCBINBrFYrdrt9q4e0bSmcUQuIPB0A2OhMp1AoxOzsLOl0GrvdLqZGvum8yn0uGGoBESE9USKRbEp4xO/3Mzs7S1FREUVFRTumgP5V7rMc/hx4jsfjpFIpsVWCRqNBo9EUuoY9hyfrRNcD4R5v9n3O5XJks1mSySSRSAQAnU6HVqvd8HzbhYUFAoEApaWlaDQaMfnhVeKogsBcIpEgnU6j1+uX1epuJ2KxGLFYjEwmg06nQ6PRiJVPLxqvHBBv0PDwMNPT0ywtLSGRSKirqxMlSAo8y9MT26sil8tRqVQolcpNe7CESSaZTLK4uMjk5CQzMzNotVp8Ph9KpXLDDXVxcZFIJILD4SCTybCwsABAcXHxikv2nrz38XicgYEB5ufnaW1tFTsbCKvXdjHacDjM+Pg409PTlJSU4HK5sNvtLy2ukMPj4uRwOMyXX37J119/zcOHD5HL5fzTP/0Tf/u3f1sw1BcwNTXF3Nwc8Xhc/LeXPQwvWn2LiopwOp2b7kzJZDLMzc3R1dXFmTNnmJiYoKamBovFgsVi2fD3T6fTYhH+6OioqJLR0tKyYkNNp9PA48lubm6Ozz77jI6ODj755BNxwkmlUmLl03YgGAxy8+ZN/u///o+qqira2tpob2/H5XKJtdBPI4c/y2YePXqU0dFROjo6sNvtqFSqQt7lS7h79y6XLl2iv78feFwGp9PpXtj2IpfLier88XicaDRKPp9n3759vPvuu1gslk15mIQxjIyMcP78eW7fvo1CoeD48eM0NzdTVlaGSqXa8HE4nU7Kysq4evUqQ0ND2O126urqVvTewpZ9aGiIdDpNWVmZKEgXDodRKBQkk0n8fj8TExPU1dVhsVi2RWqiy+Xi7bffxmw2c//+fa5evcrg4CAffPABVVVVmEymZ54fOTwWotZqtdTV1eHxeFAoFLjdbmw2W0E14DuYnp7m4sWLpFIpbDYb1dXVtLS0PFexUPAFBAIBZmdnuX//PrFYjHw+T2Nj46a1UUylUvj9fs6fP8/Vq1eJRqOcOnWKI0eOUFFRsWnfucfjoa2tjXw+j8fjwel0UlpauqLJKpvNEolEuHXrFvPz8+zevZuSkhLkcrlosH19ffT29jIwMIDJZEKv12/KBPRdFBUVYTAYqKioQK1Wc+HCBW7cuIFOpyOfz7Nr165nFshlh5BwOMzS0hJKpZLq6uod4y5/VQ4fPsz4+DjXrl1jbm4Oq9VKe3s7v/71rzGZTM8Yq7D1HR4e5osvvsDv9zM2NrapY87n80QiEXp6evj0008xGo28//77/PznP3/htmuj8Hq9eL1efvSjH636tYJy5OXLl+ns7KS7u5vTp0+TSqWQSqWMj49z+/ZtLl++zNzcHG1tbaI283ZAoVBgNpv54IMPUKlU/Od//ie//e1v0Wg0lJWVickfwvch+81vfvMb4cWPHj3i8uXL9Pb2cvr0afbu3VvIFnkJSqWSbDZLKpVidHSUhYUF0uk0paWlFBcXv7ChlODlk0gk9Pf3Y7PZaG5upr6+fsP9Adlsljt37vDb3/6WkZERjh8/zo9//GOsVutrpRIhSLRarVbMZjMzMzPcu3eP+/fvMzc3x9jYGIlEgsbGRn7605/S0tKybba+TyKRSFCr1Wg0Gq5cuUIqlUKr1VJfX7/MAbZsRZ2YmGBubg61Wo3P58NsNhOLxUTPplQqRalUbquD+VYhkUhQqVTU1NRw6tQpuru7efDgAf39/fzud78Ttzd6vX7Za+CxoVZUVHD06FHOnTuHWq3etAcoEAjQ3d3N9evXcbvd7Nq1C4/H80KdIqGwO5lMikXdarV6mVdYkLOJx+Nks1kUCgVqtXpDwyNCz1qfzyeWy129epWFhQXi8Thzc3P4fD52797Nvn37Vn3+F87AghRPPp8XPfNPTqaCTI7w2QUNLrVa/Z2TrmCIDoeD5uZmqqqqGB8f58qVK3z/+99Hp9OJx5BnDHVhYUGsC5RIJIyNjTE3N0cikUCpVGKz2fB4PGi12nV7uISHYT1EpZ8Ux9qM1aGkpIS2tjYOHTpEMBhkYGCAL7/8kubmZpxOJz6f77ljMZvNNDY2Ul1djV6vF+PVG83Y2Bg9PT1MTk7yox/9iOrq6hduBwUDDIVCTE1NsbCwQCqVwu1243Q6Rc9wMplkYWGB4eFhotEoVquVyspKDAbDhoV4BIfY0tISmUwGm81GaWkpU1NTRKNR3G43DocDpVJJIBDAYDCsOOSUz+dJpVKEw2FRSjadTuNyuSgtLaWoqAh4bGjC/RkYGGBxcRGpVIrD4cDr9Yr/77vQaDSUlJRw4MABPv/8czo7OxkdHV3mL3jGUCORCHa7HY1Gw8jICNeuXePy5ctMTU1hNps5cOAAP//5z3G73evqEZ6fnycWi63ZoWIwGDAajWg0mnUa2cuRSCSYzWY+/vhjZmdnGRsbIxQKcfbsWSwWC+Xl5SiVymdmc7lcjtls5uTJk0il0hU7UdZKZ2cnPT09qFQq9u7dS1lZ2Qv/by6XIxwOc/fuXc6ePcutW7fw+/18+OGH/OAHP+DAgQPA4+/u6tWr/Pd//zcDAwMcOXKEv/u7v6OmpmbDDDWbzRIOh/n666+5ePEifr+fd999l3g8Tj6fZ+/evXR1dXHx4kVqa2v567/+axoaGlY0nlwuRygU4t69e5w5c4Y7d+4QDAY5ceIEH374IQcPHhQn1UgkwqNHj/jkk0+4f/8+SqWSEydO8Fd/9VcrNlQArVbL/v37+fbbbxkeHqajowOTyYTJZAKeSHhIp9NMT0+TTqexWq3cu3ePWCxGOBymubmZZDLJ+Pg4Z8+eFV3oHo/nVe7xM2SzWT7//HO6urpW1bbwebS1tfHOO+/g8/k2RclOiP35fD7efvttxsbG6OjooLOzk9LSUnbt2kVDQ8MzIRvhbPLOO+8AYDQaN9RQhQQHobO6xWKhrKxMfBCeRzweZ2xsjPPnz6NQKCgrK6Ovr48LFy7g9XrZu3cviUSCS5cu8c0337C4uEgikUAul2MymTZ0Oy+RSJDL5aRSKRwOB8ePH6ehoYFQKIRMJqO9vR2fz8eDBw+YnJwUpUhXQiwWY2RkhDNnzqBWq7HZbGKza5/Px549e8QdkLD7dDgcoqPOZrOh1WpX9XlUKhXV1dUUFxdz//59bty4weHDh8Xfy+Gxuz4QCOD3+8UbPTAwgM1mo66ujoqKCuRyOWfPnqWzs5O7d+/i8/nWzVBzuRzT09MMDAwQi8XWdC2PxyOGPDYLoS3j/v37mZmZoaenh0AgwJ07d/jjH/+I1WoVzzdPIpfLqays3JQxCpOxsGuqqKjAbDa/dFckxHslEglNTU2Ul5fT19fH0NAQAwMDzM7OMjo6yr179wiHwxw6dIi5uTn27NlDcXHxhk48UqkUjUZDbW0tbrebgwcPAohyrx6Ph7q6OsrKyrhz5w7FxcUrnriTyaS4YOzZsweLxUJfXx/Dw8MMDAzg9/spLy8X38/hcGC1WjGZTGSzWZqamla1msLjZ8Fut2OxWMhkMnR1dRGJRMSsKjk8nkEGBwfF8EwoFCKbzXLw4EEOHTokXmh2dpbbt2/T39+P3+9f1UBehjADejyeNbeLqK6uFruxbTaNjY3EYjEuXLhAZ2cn/f39fPbZZ6KS/ZNnm81G6K6+sLBALpfD5XKtyMNst9v52c9+RmlpKcPDw3R1dTE5OcnU1BT379/nwoULRCIRDh06xD/8wz8wPz8v9ufZSITY//vvvw883pVNTk4Cj40nmUzicrlob2+nvb191dd3Op384he/wOPx0NXVxcOHD5mammJmZobR0VFcLpeYnii03ZRIJJSVlYkT1WqQSqWo1WrMZjMKhYKRkRGWlpbI5XLIZLLHhrq0tMSjR4/EX6hUKt577z1qa2vFCwnJw/l8nng8LqZurQdSqZSWlhZ27dq15jOqVqt9YVhko5HJZLjdbv7mb/6Gf/u3f+Pu3btMTk7y+9//HqVSyeHDh7csHTOVSjE9PU0ikUCtVlNUVPSdk5nBYECtVovPhNFopL6+nj/+8Y8MDg5y/vx5RkdHOXnyJMePH0ehUFBcXLxlIRCVSkVTUxMajWbVW88nEXwcuVxONJ7q6mrUarXYR/fJrnrxeJzR0VEsFguHDh1Cp9O98j3Q6/XodDox5z6RSDwWJIfHhtrT00M0GsXpdLJ//35qa2sxm83iBZ70yMrl8nX/MgSF9PXw+m6VyrpUKqW4uJh33nmHO3fuMD8/z8jICJcuXaKqqorq6upNcxo9TSaTYXFxkXQ6jUKhQKfTfec4FArFsonFaDRSW1uLVqtlbGwMk8nEW2+9xb59+/B6veKqsBVIJBJ0Oh179uyhoqICk8n0yvdZqVQuO6aYTCYqKytRqVQsLi4yOzsrPqeRSITR0VECgQDV1dUcPHhwTYkjQtquEPJJpVKPDTWfzxONRunt7SWRSNDS0sKpU6cwm83LPmg0GiUWiyGVSjGZTOvqVc3n88zNzRGNRte8ohqNRsxmM1qtdktWVY1Gg8fj4ciRI0xNTTEyMkJfXx8PHz5kfHwcp9O5JYYqxASz2SwymQyVSrXqyVan0+F2u9FoNASDQRYXF3n//fepq6vb8sINqVSKXq+npqZm3a9tNBrFKEc4HMbv94sL1/z8PPfv30cikVBdXU1zc/Oa7oVcLhdfL8SugceGurS0RF9fHwBut5vGxsZnZsZAIEAwGEQul+N0OjEaja88mKfJ5XJ0dHQwMDCw5jNqU1MTra2t6+boelUOHTrE6OgoFy5cIBwOE41GCQaDW6oCL/TQgVc7J8tkMtRqNSqVCr1ej9VqpaSkZE3bzNcBnU6H0+lEp9MxPz8vrqjZbJaJiQk6Ojqor69n165dGAyGNS0QT8bchb5DAPJ4PC723vR6vTidzmXBd8GtPzIyIjb1rampWdeSrFwux8DAALdu3VpWMvYqaLVaampqtrwtglBjqtPpMJlMNDQ0UF1dvWXnNyGTSiKRkM1mSafTq9q9COG7y5cvi9k6oVBoR7SgEBxXJSUl+P1+5ufnyWazLCwsMDIywtjYGL/4xS+oq6tb825JyHQClrX4lAt77qWlJaxWKzabbdnDlM1micfjDA4OsrCwQElJCTU1NeuasC+RSCgpKaGyspJkMrmma5WUlGxals/zEErZhoaGmJiYQK1W09LSwv79+8VUva1AJpOJXdKE5sgvMlTB8J40wEAgQE9PD99++y1GoxG9Xi+G9Gw2GzqdjlwuJ8qLvC45wytBSAt0uVw8evSIYDBINBqlv7+f8fFxLBYLu3fvxuVyrfm9UqkUyWRSjLOLmUkzMzNMTEwAjyvrTSbTsi8omUwyMzNDf38/iUSCtrY2vF7vum59FQoFf//3f79u19sqhO1QPB7n3LlzdHR0oFQq+fjjjzlw4MCW1vYqFAosFotYSB2JRMhms2Kc7kmEXZRwDsvn8/T19XHz5k36+/tpbW1FJpOJMdXS0lLUajXJZBK5XC7+vEnIZDJKS0vR6XQsLS3h9/u5dOkSs7Oz/MVf/AXl5eVr8tsINhePx4nFYuIqLjwz8tnZWdFQhZ6bAoI8yxdffMHc3Bx1dXV88MEHy7zBBf5MLpdjfn6e69evc+XKFWQyGR9//DGNjY0vzQDaDJRKJQ6HA71eTzqdZm5u7oUhtnw+z+LiIqFQiEgkQiqV4quvviIUCvHLX/4SnU7HzMwM9+/fp7Ozk4qKCjKZDL29vWJD6I2Oo242MpmMsrIyzGYz4+PjXLhwgd7eXlwuF9/73vfW5fsV0iITiYR4DwXHknxubk48ey4tLTE/P08gEABgcnKSmzdvcvHiRex2O+3t7bz11ls7Ri1utUQiEXp7e/n8888JhUI0NTVx6tQpSkpKnpv4LqzAwpZxI6tNhK2voM0zMzMjCmw97aXMZrOMjIxw584dBgYGRO+mz+fj8OHDpFIprl+/Tj6f5/bt27hcLhwOB52dnRQXF7+R+rxyuZzS0lLMZjOdnZ2cO3eOkpISGhsbcbvda95BZLNZcXLM5/P4fD70er24cMpDoRDRaBSv1yvKczx48IBcLkdvby93794lEAjw4Ycf8u6774qpU08jbJOEcridVAYnfO6xsTGuXbvGuXPnaG9v58iRI7S0tLz0dZFIRFTeezoktp4IuyW3243FYmFubo5AIEAikXjGUDOZDP39/Zw9e5br169jNps5ffo0hw8fpry8nFQqhcfjobi4mP7+fq5cuUJpaSnz8/Pk8/nnhieESenJbumv0zlWJpNRUlKC0WgkGo3S2dnJsWPHOHjw4EsVMYQtrTAhC5Px059dSO9cWFgQEzeePF7KFQoFlZWVNDU1MT8/z9TUFJ988gmJRAKVSkVpaSm/+tWv2L9//wuNVHijWCxGJBLBYDBsijjWdkHYsly4cEHsTHb69OnvTF1Lp9M8fPiQQCCAyWTiwIEDGz7B1dXVUVlZycTEBL29vXi93ud2906n06jVaiorKzlw4ACnT59mz549wOPzbnNzMz/84Q+5ePEii4uLVFdX84//+I+ioNjzEAxZp9OtKOFiOyHkD2i1WkwmE21tbbS2tuJ2u7/ztel0msXFRWKxGDab7bn13PF4nAcPHojtPQ4ePLjsiClvb2+npqYGp9PJ0tISi4uLYo2fSqWiqKgIj8eD1Wp96WE5EAhw7949bt26xYEDBzhx4sSr35XXCGHLcvHiRa5du0YqleKjjz5i7969WK3WF64auVxOrDzx+/3U1NTQ2tq64eNtbGykoaGBq1evcvfuXWpra58pHFcoFLS2tuJwOIjFYpSWllJRUSEmkUgkEnw+Hz/+8Y9pbW1FLpdTUlJCXV3dc9PnhB3HF198ISbVNDc3vzZHKKH2dXR0lFQqRW1tLR999BE+n+87pV2Ekrnz58/T3d3Nz372M8rKypbFnoVn6MaNGywtLeHxeGhpaVl27pU3NTWty4eJRqOMjY3x6NEjKioq1uWa2xlhS7O0tMTQ0BBffvklExMTeL1eTp8+LariCQHrp18rCIwJX47FYtkUcbPy8nJ27dqF1+ulp6eHR48e0dzcLMqUCKGIuro66urqXngdm82GzWZb0eQiGGp/fz/xeByfz/fc+7JdEI5xUqmUfD5PIpFgdnaWa9euIZFIaG9v55133llxhUw0GhULGhKJhPg9Cx71cDjM6OgonZ2daDQampub8Xq9y1bddYu+q1QqnE4np06dorGxcb0uu60RyvOuXLnCuXPn0Gg0HDt2jJqaGlQqFclk8rk/iUSChYUF+vv7GRwcZGlpadNCN4La5Pe+9z2mp6d58OABQ0NDG2o4glJEY2MjBw8epKGhYduIjD0PQW9YiIkHg0EePHjAl19+iclk4sMPP6S4uHhVqYI1NTWcOHECt9u9bDXN5XKMj49z/fp1RkZGqK2t5ciRI890C1iXYFc4HCabzVJaWkptbS02m209Lrvt8fv9XL58mc8++4x4PE5RURFyuZzr16+/NAMpmUzS399PR0cH09PT1NXVbVqShkQiwePxcPr0aQYGBhgfH+d3v/sdBoNBTJNbz7xdwXexuLhIY2MjBoMBu92+5bnBL2NkZAS/34/L5SKZTHLr1i3OnDlDfX097e3tVFdXv1Bj6knS6TTRaJRsNovP51v2PQttRKampujo6ODChQvs2rWLo0ePsnv37ufr+q6V7u5uOjs78fv9vPfeezidzvW47LZFmGnv3LlDR0cH3d3dZLNZxsfHuXTp0nfqNQklZ48ePSIajaJSqTa1iEAoV/vBD37ApUuXGBwc5KuvvqKlpQWfz4fNZlu3CqmlpSV6e3v55ptvsFgs7NmzZ1n55HZC2Ip2dnZy7do1ysvLicViTE1NkclkOHz4MHv27FlxHkEkEqGvr4+rV69iNBrZu3evqA+2uLjIxMQEN27cELe8J06coLW19bm1rOtiqA8fPuR//ud/uHv3Ll6vF5fLta6ZS9sNwREkaMoKMdCenh56enpWdS2NRoPJZMJgMGxaHrBUKsVgMPDDH/4QlUrFmTNnOH/+PLFYjGw2i0ajWbfxxGIxHj58yL/8y79QVVUFIGotbTeEENKDBw/4/PPPsdvt5PN53G43hw8f5tixY5SUlKz4esIk9e///u9i5lJ1dbVYv3r9+nU6OjrELgV/+Zd/+cLU3HUx1NraWurr63n06BEul2vLs3A2mnQ6LSolOJ3OVVfzP019fT0Oh2NTE/YlEgkajYbjx49TVVXFtWvXePjwId9++y1ms5mampp12Z7a7XYqKipEZb613quNRHAcCTFtob5VUIlY7XNttVo5cOAARqNRjJ4oFAoGBwe5ceMG169fp7W1VRRNeJnO1LoYaiKRQCqVigHhN70NhiDedfr0aVGrZy04HA7Ky8s3NT9WIpGIWk9KpRKNRoPP50OhUOBwONbtDCl4LhcXF8Wij+2KIFR34sQJqqqqUKlUuFwuysvLxZVuNccTofgBHrexECIBdrudlpYWysrK8Hg8omD7y1iXJ2Nubo5YLIbX60Wr1b5WgexXQZhxX0WLZ7shKCPU1tZSW1u7LDSxHggFAH6/n6Kiom3dJkUQ9T5w4MC6bM+j0SgjIyOi8ofNZhMznFar67Uuhjo1NUUsFqOqqqrQ/e01Z72FyyORCPPz80QiEaxW67be+q43kUiEwcFBtFotxcXFyxKGVnuP12SogpdsZmaGeDxOZWXlpglfF9gY1tvz7Pf7mZ2dRaPRYLPZ3mgn49OEw2GGh4exWq0vzVJbCWva3widyv1+P5lMBq/XCyBW/b/plf8Fvhu/38/CwgI2mw2TybSjdlxLS0uMjo6Kdd7JZFJs3bJa1mSo2WxWzA/O5XJYrVYWFxcJh8NvrJEKUhlCJch6IYQGMpnMsp8ni7dfR/x+P8FgUPRfbLduahtJPB5nampK7MEjNLB6la8sVS4AAAYLSURBVCywNW19BUOFPxdN37lzh927d7N///430qkUCoVIJBLo9Xq0Wu26eUczmQzRaFScdeHPNaRbpVO8HgiGWllZ+caLoD2NoPyYSqUYGhoiHo/T1NRESUnJqp+bNRmqTCbDYDBQXl7OwMAAV65cwev1Lit4fVMQVrVvv/2WgYEBMfa1Hl7MdDqN3+/n5s2bBINB4vG4WExeX19Pc3PzmnRqtwIhEd/v9xMOh2ltbX1tqmXWC7PZTH19PXNzc2i1Wux2O3q9/pXCl2syVLlcjtFopK2tTRTPrq6upqSk5I00VEEt8d69e7jd7nXrFiAIh50/fx6dTodWqxVlcObn51EoFLS0tGx6R/C1ICjIz8/Pk0gkqKqq2nErqtPp5OTJkwwNDYmxcovF8koFCWsyVKEk6ic/+QkfffSRGER/04xUIJPJUFVVJWasrJcHs7+/nz/96U90dXXxq1/9Smwf+M///M/cvHmTcDhMbW3ta+WIyWaz4rZXKpVSXV294wy1oqKCX/7yl6LqydOaZKthzYYKvJGqc08idNwOhUJ4PB48Hg8ul2vNpVpP1ml2dnbS1NSEy+USV87m5mbGxsa4d+8ewWAQo9G4rcvDBIT+RD09PaJQl8fj2XGhu7UY5tO8uda1jsTjcbEyRiaTiasqPM68ebIYeCUoFAqxuXE8HmdiYoKJiQlOnjyJ2WxGKpUil8upqqpCr9fT29vLzMwMdrt9WxuqUHeaSqWYn5/n7t27qFQqKisrxc9V4NUoGOoKEATI/+M//gOlUsmpU6c4fvw48NgLPD4+vqpWHMXFxVitVoxGI+FwmIWFBWKxGFarVdzeSqVS7HY7RqNRrFusqqra1lKt+XyeUChEKBRieHiY7u5uysrKaGtre6N3XJtB4e6tAIvFQlVVFS6XC61Wu6ze9sGDB3z66acEg8EVx8fa29s5evQoLS0tCCqQQmPeJx9ovV6PSqUik8kQDofX3EVgo8nn83R3d3Pv3j1GR0cpKyvj2LFj7N+/f6uH9tpTMNQVIJPJUCgUxGIxSkpKltUklpSUcPDgwVV1oqutrcVqtZLP58W4qVQqRalUittDwVEnGK4gDbKdkUgklJeXI5VK8fl8mEwmqqqqdpQi5UZRMNQVICQj+P1+du/evWxF9Xg8GI3GZZ3SvgudTicqyT+ZdfR0QvyTf38ddHClUilVVVVigXiB9aNgqCsgFovh9/tZXFzEaDQuW1Gz2SypVGpVhqpSqcTVUaFQiC3mU6nUsu3zkyr6Go3mtUp4KLC+FAx1BQgOI5lMRlFR0TKZyO7ubn7/+98TDodXvDVtaWnhrbfeYteuXRiNRrRaLblcjsXFRdEpJTSYTiaTKJVKrFbrjotDFvgzBUNdAaFQiMnJSQwGg9jNXEAul4stB1dqqGq1WmxtYDabsVgsyOVypqeniUajYnxVyOoxmUw4nc6Coe5gCoa6AoLBIFNTUzgcjmd0bRoaGnC73aty9KjVatRqNVKpFKPRKF53eHiYYDAoVs6MjY2RSqUoLy8XPc4FdiYFQ10BoVCI6elpnE7nMwJXQrPZ1ZShPZ2xUlNTw969e3n06BFDQ0OUlZWRy+Xo6upCp9PR0tLyWlfQFFg7BUN9CYJHNhQKMTMzQ11d3TP5vTKZbM1OnpqaGo4fP048Hqevr4+lpSXkcjmpVIpdu3bx9ttvv1YJ+QXWn4KhfgfJZJJgMEgwGKS0tHRDpERKS0tRKpXEYjEmJiaYmppCrVbj8/nYu3cvDQ0NBY/vDqdgqN9BIBBgYWGBTCaD2+3ekBQ+mUyGw+Hg448/FhUdJBKJ2Ge2YKQFCob6AgTP69DQEIFAAKvVitvtfm4v0bUiJDa8TmVsBTaXgqE+h3Q6TTqdJpFI8PDhQ5LJJLt378ZmsxWMqcCWUDDU5xCNRsVzaVdXF2q1mvb2doxGY6FUq8CWUDDU5zA4OMjt27fp7e1Fq9Wyd+9ejh49WohjFtgyCob6HKxWK3V1dRQVFWE2m/F6vdjt9sJqWmDLkORfV8HYAgV2EIUlokCB14CCoRYo8BpQMNQCBV4D/h8CZxBzqJWyDQAAAABJRU5ErkJggg==&quot; width=&quot;234&quot; height=&quot;94&quot;&gt;" style="whiteSpace=wrap;html=1;" vertex="1" parent="1">
          <mxGeometry x="415" y="390" width="250" height="105" as="geometry" />
        </mxCell>
      </root>
    </mxGraphModel>
  </diagram>
</mxfile>
